<?xml version="1.0" standalone="no"?>
<!DOCTYPE svg PUBLIC "-//W3C//DTD SVG 20010904//EN"
 "http://www.w3.org/TR/2001/REC-SVG-20010904/DTD/svg10.dtd">
<svg version="1.0" xmlns="http://www.w3.org/2000/svg"
 width="24px" viewBox="0 0 512.000000 512.000000"
 preserveAspectRatio="xMidYMid meet" fill="#fff">

<g transform="translate(0.000000,512.000000) scale(0.100000,-0.100000)"
fill="#fff" stroke="none">
<path d="M700 5111 c-48 -15 -87 -40 -123 -80 -67 -74 -67 -78 -67 -712 l0
-566 -35 -6 c-50 -8 -94 -43 -116 -91 -17 -38 -19 -76 -19 -576 0 -321 4 -549
10 -570 5 -20 26 -51 45 -70 l35 -34 0 -159 c0 -167 3 -181 50 -232 l29 -30 4
-455 c5 -489 6 -498 63 -668 120 -359 429 -642 811 -743 101 -27 340 -37 451
-19 485 78 849 427 959 920 15 67 17 223 22 1540 l6 1465 26 67 c76 195 225
340 409 399 91 30 254 37 340 15 180 -45 337 -166 418 -322 75 -146 75 -147
80 -622 l4 -423 -27 -21 c-53 -42 -65 -87 -65 -257 0 -152 0 -153 -25 -173
-56 -44 -55 -30 -55 -641 l0 -564 23 -33 c29 -43 66 -70 108 -79 l34 -7 5
-594 5 -595 28 -47 c88 -151 291 -170 410 -39 67 74 67 77 67 712 l0 566 35 6
c50 8 94 43 116 91 17 38 19 76 19 576 0 321 -4 549 -10 570 -5 20 -26 51 -45
70 l-35 34 0 159 c0 167 -3 181 -50 232 l-29 30 -4 455 c-5 489 -6 498 -63
668 -101 301 -352 567 -647 688 -168 68 -220 78 -437 78 -174 1 -204 -2 -280
-22 -397 -109 -693 -384 -818 -762 -58 -174 -55 -89 -61 -1680 l-6 -1465 -26
-67 c-76 -196 -226 -341 -414 -401 -100 -31 -280 -31 -380 0 -238 75 -410 279
-444 527 -6 44 -11 239 -11 453 l0 375 26 21 c52 41 64 86 64 256 0 149 1 154
24 172 57 45 56 38 56 647 l0 559 -23 33 c-29 43 -66 70 -108 79 l-34 7 -5
594 -5 595 -28 47 c-58 99 -182 151 -287 119z m109 -176 c16 -8 31 -22 35 -30
3 -9 6 -79 6 -156 l0 -139 -86 0 -85 0 3 146 c3 146 3 146 31 170 32 28 56 30
96 9z m2916 -109 c342 -103 589 -358 683 -706 25 -94 26 -101 30 -527 l4 -433
-85 0 -85 0 -4 423 c-4 389 -6 428 -25 497 -80 288 -277 492 -563 582 -65 20
-96 23 -225 23 -129 0 -160 -3 -225 -23 -268 -84 -460 -274 -551 -547 l-24
-70 -6 -1465 c-6 -1581 -3 -1507 -58 -1662 -50 -145 -161 -313 -267 -407 -110
-97 -247 -174 -391 -218 -81 -25 -101 -27 -268 -27 -168 0 -186 2 -269 27
-170 53 -300 130 -422 252 -131 129 -213 271 -262 455 -25 94 -26 101 -30 528
l-4 432 85 0 85 0 4 -422 c4 -396 6 -428 26 -502 77 -278 283 -490 562 -578
64 -20 96 -23 220 -23 168 0 230 13 357 75 202 99 348 270 424 495 l24 70 6
1470 c6 1590 3 1499 58 1658 83 239 261 441 486 554 162 82 266 104 465 99
133 -3 168 -7 245 -30z m-2875 -516 l0 -130 -85 0 -85 0 0 130 0 130 85 0 85
0 0 -130z m0 -430 l0 -131 -82 3 -83 3 -3 128 -3 127 86 0 85 0 0 -130z m170
-424 l0 -124 -60 -4 c-45 -3 -66 -10 -82 -26 -30 -30 -29 -84 2 -117 20 -21
32 -25 82 -25 l58 0 0 -130 0 -130 -54 0 c-72 0 -110 -29 -110 -85 0 -56 38
-85 110 -85 l54 0 0 -85 0 -85 -255 0 -255 0 0 85 0 85 50 0 c55 0 104 20 114
45 13 35 6 76 -19 100 -20 21 -34 25 -85 25 l-60 0 0 130 0 130 60 0 c51 0 65
4 85 25 17 16 25 35 25 57 -1 59 -40 88 -119 88 l-51 0 0 125 0 125 255 0 255
0 0 -124z m3500 -596 l0 -130 -170 0 -170 0 0 130 0 130 170 0 170 0 0 -130z
m90 -385 l0 -85 -50 0 c-55 0 -104 -20 -114 -45 -13 -35 -6 -76 19 -100 20
-21 34 -25 85 -25 l60 0 0 -130 0 -130 -60 0 c-51 0 -65 -4 -85 -25 -17 -16
-25 -35 -25 -57 1 -59 40 -88 119 -88 l51 0 0 -125 0 -125 -255 0 -255 0 0
125 0 125 44 0 c62 0 92 14 111 50 18 35 13 64 -18 98 -17 18 -31 22 -79 22
l-58 0 0 130 0 130 54 0 c72 0 110 29 110 85 0 56 -38 85 -110 85 l-54 0 0 85
0 85 255 0 255 0 0 -85z m-3670 -215 l0 -130 -170 0 -170 0 0 130 0 130 170 0
170 0 0 -130z m3498 -1022 l3 -128 -86 0 -85 0 0 130 0 131 83 -3 82 -3 3
-127z m2 -428 l0 -130 -85 0 -85 0 0 130 0 130 85 0 85 0 0 -130z m0 -432 c0
-144 -8 -173 -51 -197 -30 -17 -71 -9 -99 19 -18 18 -20 34 -20 165 l0 145 85
0 85 0 0 -132z"/>
</g>
</svg>
